<?xml version="1.0" encoding="utf-8"?>
<!-- Generator: Adobe Illustrator 24.1.3, SVG Export Plug-In . SVG Version: 6.00 Build 0)  -->
<svg version="1.1" id="Laag_1" xmlns="http://www.w3.org/2000/svg" xmlns:xlink="http://www.w3.org/1999/xlink" x="0px" y="0px"
	 viewBox="0 0 456.5 193.06" style="enable-background:new 0 0 456.5 193.06;" xml:space="preserve">
<style type="text/css">
	.st0{fill:#B2B2B2;}
	.st1{clip-path:url(#SVGID_2_);}
	.st2{fill:#3E78BC;}
	.st3{clip-path:url(#SVGID_4_);}
	.st4{fill:#95C11F;}
	.st5{fill:#A83123;}
	.st6{clip-path:url(#SVGID_6_);}
	.st7{fill:#235833;}
	.st8{fill:#87BA61;}
	.st9{fill:#086736;}
	.st10{clip-path:url(#SVGID_8_);}
	.st11{fill:#FBBD53;}
	.st12{fill:#FFFFFF;}
</style>
<path class="st0" d="M231.95,96.53c-7.07,0-11.54-4.48-11.54-10.36v-25.2c0-10.72-4.71-15.42-12.84-15.42
	c-6.82,0-11.53,5.18-11.53,14.24v36.74h-4.71c-6.72,0-11.07-4.48-11.07-10.36V58.73c0-13.42,8.83-27.2,28.61-27.2
	c14.95,0,27.32,10,27.32,28v37H231.95z"/>
<path class="st0" d="M273.31,96.53c-15.66,0-28-10.37-28-28.85V31.53h2.94c9.07,0,13.07,3.89,13.07,11.31v23.31
	c0,11.66,5.65,16.37,12.84,16.37c6.47,0,11.06-4.48,11.06-15.31V31.53h2.83c9.18,0,13.07,3.89,13.07,11.31v23.83
	C301.1,86.4,291.8,96.53,273.31,96.53z"/>
<path class="st0" d="M313.53,22.3c2.12-2.47,4.95-4.36,7.42-4.36h3.65v14.37h22v6.47c0,3.3-3,7.54-9.42,7.54H324.6v24.84
	c0,8.24,3.65,11.42,10,11.42c5.06,0,9-0.7,11.42-2.23h0.59V86c0,6.47-4.71,10.59-13.89,10.59c-16,0-23.79-8.71-23.79-23.54V34.9
	C308.9,28.67,310.12,26.3,313.53,22.3z"/>
<path class="st0" d="M391.19,48.37c-2.9-1.25-6.02-1.89-9.18-1.88c-7.07,0-11,3.88-11,13.54v36.5h-4.31
	c-7.07,0-11.54-3.53-11.54-10.13V57.2c0-12.71,6.71-24.84,23.43-24.84c9.77,0,13.19,5.53,13.19,10.36v5.65H391.19z"/>
<path class="st0" d="M408.76,27.83c-5.09-0.07-9.18-4.21-9.18-9.3c0.01-5.07,4.11-9.17,9.18-9.18c5.09-0.01,9.24,4.09,9.3,9.18
	C418.01,23.65,413.88,27.78,408.76,27.83z M419.95,96.48c-12.25,0-19-7-19-19.78v-43h4.48c7.06,0,11.3,3.77,11.3,11.77v29.7
	c0,6.35,2.71,8.36,9.65,8.36h3v3.41C429.37,93.77,426.66,96.48,419.95,96.48z"/>
<path class="st0" d="M277.6,146.76c-4.7,13.43-10.6,25.08-14.7,31.21h-2.59c-4.94,0-8.71-4.6-10.83-8.48
	c-3.89-7.07-8.71-18.84-10.48-28.49c-2,9.65-9.42,29.31-15.07,37h-2.12c-4.71,0-9.18-4.71-11.3-8.48
	c-9.19-16.25-15.31-34.62-18.14-55.81h8.48c4.52-0.04,8.41,3.2,9.19,7.65c1.88,10.83,4.82,22.84,10.12,34.38
	c5.77-12.6,8.95-26.25,12-39.68h5.18c4.83,0,9.66,2,11.19,9c1.88,8.6,5.77,21.78,10.24,30.73c6-13.3,9.42-28,11.89-42.39h6.6
	c4.47,0,7.65,2,7.65,6.83C284.9,122.67,282.31,133.58,277.6,146.76z"/>
<path class="st0" d="M304.09,109.2c-5.09-0.07-9.18-4.21-9.18-9.3c0.01-5.07,4.11-9.17,9.18-9.18c5.09,0,9.23,4.09,9.3,9.18
	C313.34,105.01,309.2,109.15,304.09,109.2z M315.28,177.85c-12.25,0-19-7-19-19.78v-43h4.47c7.07,0,11.31,3.77,11.31,11.77v29.68
	c0,6.36,2.71,8.36,9.65,8.36h2.95v3.41C324.7,175.14,321.99,177.85,315.28,177.85z"/>
<path class="st0" d="M352.72,178.67c-11.66,0-20.37-6-20.37-12.48v-7.18h0.55c3.41,3.18,11.54,6,19.07,6
	c7.77,0,11.54-2.23,11.54-6.94c0-3.65-2.24-5.42-13.18-7c-13.43-1.88-19.91-7.18-19.91-16.84c0-11.89,10.72-22,27-22
	c14.36,0,20.25,7.42,20.25,13.55v6h-0.59c-3.3-3.3-10.6-5.89-18.13-5.89c-9.65,0-12.72,3-12.72,7.07c0,3.18,1.89,4.47,12.72,6.24
	c13.19,2.12,20.25,7.89,20.25,18C379.21,170.67,369.79,178.67,352.72,178.67z"/>
<path class="st0" d="M415.24,152.3H404.9c1.17,8,8.47,13.07,17.78,13.07c6.59,0,14.36-1.3,19.42-6h0.59v4.95
	c0,8.12-5.53,14.36-23,14.36c-17.3-0.06-31.27-14.14-31.21-31.43c0-0.16,0-0.32,0.01-0.48c0-21.19,12.95-34.5,31.09-34.5
	c13.18,0,25.43,9.42,25.43,24.61C445.03,148.53,436.2,152.3,415.24,152.3z M418.18,125.45c-7.65,0-12.95,6.24-13.3,13.54l-0.12,2.12
	h7.06c15,0,18.37-1.65,18.37-6.12C430.19,128.67,425.48,125.45,418.18,125.45z"/>
<g>
	<defs>
		<path id="SVGID_1_" d="M83.34,182.78c-5,0-31.52-0.5-52.95-21.93s-21.93-48-21.93-52.95h75.06L83.34,182.78v-37.44"/>
	</defs>
	<clipPath id="SVGID_2_">
		<use xlink:href="#SVGID_1_"  style="overflow:visible;"/>
	</clipPath>
	<g class="st1">
		<path class="st2" d="M126.56,122.13c-6.52,0.92-12.52,4.05-17,8.88c-0.74,0.82-2.01,0.88-2.83,0.14
			c-0.19-0.18-0.35-0.39-0.46-0.63c-6.59-16.51-24.31-28.38-45.21-28.5c-19.08-0.12-35.63,9.58-43.59,23.75
			c-0.42,0.79-0.12,1.77,0.67,2.19c0.1,0.06,0.21,0.1,0.33,0.13c13.87,4.72,22.7,14.09,20.43,22.68
			c-1.68,6.46-9.22,10.89-19.14,12.21c-0.91,0.03-1.62,0.8-1.59,1.71c0.01,0.26,0.08,0.51,0.21,0.74
			c8.16,13.13,23.88,22.07,42,22.18c20.47,0.12,38.06-11.07,45.2-26.95c0.52-0.98,1.73-1.35,2.7-0.83c0.22,0.12,0.42,0.28,0.59,0.47
			c4.43,5.16,10.57,8.56,17.29,9.58c2.58,0.42,5-1.31,5-3.64l0.31-40.41C131.51,123.51,129.15,121.74,126.56,122.13z M50.95,134.01
			c-3.94,0.17-7.29-2.52-7.49-6c-0.2-3.48,2.84-6.47,6.78-6.64s7.3,2.51,7.49,6C57.92,130.86,54.9,133.83,50.95,134.01z"/>
	</g>
</g>
<g>
	<defs>
		<path id="SVGID_3_" d="M95.1,182.54c5,0,31.49-0.5,52.9-21.91s21.9-47.96,21.9-52.9h-75c0.06,24.94,0.12,49.88,0.17,74.81v-37.4"
			/>
	</defs>
	<clipPath id="SVGID_4_">
		<use xlink:href="#SVGID_3_"  style="overflow:visible;"/>
	</clipPath>
	<g class="st3">
		<path class="st4" d="M80.72,132.84c6.6,5.1,15.96,4.5,21.85-1.4c1.63-1.62,2.92-3.55,3.79-5.67c0.43-0.88,0.18-1.94-0.59-2.55
			c-6.75-6.12-17.19-5.61-23.31,1.14c-1.16,1.28-2.11,2.74-2.82,4.31C78.7,130.78,78.9,131.45,80.72,132.84z"/>
		<path class="st5" d="M103.49,167.16c4.49,4.4,10.38,7.51,16.7,9.91c4.2,1.77,8.67,2.81,13.22,3.07c5.92,0.13,11.2-1.43,15.31-5.94
			c0.92-1,1.75-2.07,2.49-3.21c1.5-2.31,3.47-4.27,5.78-5.76c4.87-3.18,8-7.46,8.86-13.35c0.42-3.07,0.29-6.19-0.41-9.21
			c-1.77-7.71-4.46-15-9.15-21.51s-10.82-11.12-19.06-12c-8-0.86-14.36,2-18.78,8.85c-1.21,1.86-2.27,3.82-3.42,5.72
			c-0.69,1.16-0.88,1.19-1.78,0.19c-2.49-2.7-4.15-6.06-4.78-9.68c-0.05-0.95-0.71-1.75-1.62-2c-0.83-0.24-1.72,0.09-2.2,0.8
			c-0.42,0.62-0.53,1.39-0.3,2.1c0.8,4.4,2.86,8.47,5.94,11.72c0.93,1,0.93,1-0.18,1.72c-2.26,1.48-4.73,2.63-6.94,4.21
			c-6.61,4.73-9,11.27-7.91,19.12C96.03,157.53,98.83,162.53,103.49,167.16z M140.9,122.67c-2.27-1.31-4.87-1.93-7.48-1.8
			c-1.01,0.14-1.97-0.5-2.22-1.49c-0.28-0.86,0.03-1.79,0.77-2.31c0.5-0.32,1.09-0.48,1.69-0.43c4.77-0.15,9.39,1.63,12.82,4.94
			c1.24,1.19,2.29,2.56,3.12,4.06c0.6,0.99,0.29,2.28-0.7,2.89c-0.37,0.22-0.79,0.33-1.22,0.3c-0.81-0.09-1.52-0.59-1.87-1.33
			C144.61,125.5,142.92,123.84,140.9,122.67z"/>
		<path class="st4" d="M-124.84,60.59c6.6,5.1,15.96,4.5,21.85-1.4c1.63-1.62,2.92-3.55,3.79-5.68c0.42-0.88,0.18-1.94-0.59-2.54
			c-6.75-6.12-17.18-5.6-23.29,1.14c-1.16,1.28-2.12,2.74-2.83,4.33C-126.86,58.52-126.69,59.19-124.84,60.59z"/>
	</g>
</g>
<g>
	<defs>
		<path id="SVGID_5_" d="M170.17,96.95c0-5-0.5-31.72-22.07-53.28S99.84,21.6,94.82,21.6v75.53L170.17,96.95H132.5"/>
	</defs>
	<clipPath id="SVGID_6_">
		<use xlink:href="#SVGID_5_"  style="overflow:visible;"/>
	</clipPath>
	<g class="st6">
		<g id="KV1Z9q.tif">
			<path class="st7" d="M108.78,30.03c-3.33-0.66-6.59,1.1-8.15,1.94c-4.57,2.46-9.06,9.4-6.82,15.23c1.74,4.55,6.84,6.27,9.73,6.49
				c2,0.13,4.01-0.21,5.86-1c0.59-0.24,1.23-0.88,1.83-0.34s0,1.34-0.21,2c-5.18,14.94,5.61,29.26,21.24,28.11
				c0.94-0.07,1.84-0.18,2.34,0.73s-0.15,1.58-0.6,2.31c-3.26,5.35-2.95,11.59,0.78,15.92c3.88,4.52,9.85,5.64,16.09,3
				c5.05-2.12,8.61-7.83,8.45-13.66c0-1.43,0.38-2.2,2-2.49c2.63-0.37,4.72-2.39,5.19-5c0.51-2.52-0.86-5.05-3.25-6
				c-2.16-1-2.26-2.36-0.32-4c5.5-4.73,6-12.19,1-16.79c-1.22-0.97-1.68-2.62-1.13-4.08c2.34-8.06-2.48-14.91-10.79-15.41
				c-2.33-0.02-4.44-1.36-5.46-3.45c-2.77-5.33-8.45-6.57-13.76-3.08c-2.18,1.43-4.56,1-5.29-1.27c-1.59-5-8.93-6.11-12.2-0.63
				c-0.46,0.73-1.17,1.25-2,1.47C111.5,30.83,109.9,30.25,108.78,30.03z"/>
			<path class="st8" d="M88.71,97.67c1.34,2.1,3.19,3.82,5.38,5c1.94,1.18,2.91,1.76,4.09,1.73c3-0.08,4.25-3.41,8.81-6.92
				c2.35-1.89,5.04-3.33,7.91-4.25c4.36-1.19,8.77-2.15,13.23-2.88c0.56,0.04,1.05-0.35,1.14-0.9c0.9-2.93,0.93-2.93-2-3.46
				c-1.69-0.27-3.34-0.74-4.91-1.41c-0.91-0.47-2-0.39-2.84,0.19c-3.63,2.1-7.33,4.07-11,6.12c-0.89,0.5-1.83,1.08-2.55,0.07
				c-0.82-1.16,0.27-1.85,1-2.51c2.92-2.48,5.86-4.92,8.87-7.44c-2.65-2.09-4.9-4.67-6.61-7.58c-2.37,2.57-4.62,5-6.86,7.46
				c-0.66,0.73-1.33,1.42-2.3,0.76s-0.53-1.53,0-2.35c2-3.3,4-6.62,6.09-9.89c0.57-0.77,0.76-1.76,0.51-2.69
				c-0.79-2.98-1.01-6.08-0.65-9.14c0.1-0.91,0-1.3-1-1.26c-1.67,0.03-3.33-0.21-4.92-0.7c0,1.13,0,2.11-0.06,3.09
				c-0.25,5.41-1.46,10.73-3.57,15.71c-1.63,4.16-3.97,7.99-6.92,11.34c-1.16,1.07-2.05,2.42-2.57,3.91
				C85.96,93.1,87.9,96.31,88.71,97.67z"/>
			<path class="st9" d="M88.79,60.39"/>
		</g>
	</g>
</g>
<g>
	<defs>
		<path id="SVGID_7_" d="M83.96,21.47c-5,0-31.45,0.5-52.84,22.14S9.23,92.04,9.23,97.08h74.91L83.96,21.47v37.8"/>
	</defs>
	<clipPath id="SVGID_8_">
		<use xlink:href="#SVGID_7_"  style="overflow:visible;"/>
	</clipPath>
	<g class="st10">
		<g id="mjpdp3">
			<path class="st11" d="M126.49,104.32c-9,0-17.71-0.28-25.66,4.77c-4.4,2.79-7.14,7.27-9.7,11.73c-1.37,2.37-2.56,4.85-4,7.64
				c5.98,0.42,11.98-0.02,17.83-1.31c4.13-0.74,7.94-2.75,10.88-5.75C120.4,116.53,123.62,110.83,126.49,104.32z"/>
			<path class="st11" d="M82.02,126.67c0.91-1.94,1.6-3.2,2.08-4.52c1.2-3.23,2.45-6.45,3.4-9.75c1.92-6.11,0.97-12.77-2.6-18.09
				c-2.83-4.46-6.19-8.55-10-12.2c-3.74,8-7.31,15.76-5.78,24.3c0.58,3.24,2.41,6.31,4.22,9.06
				C75.9,119.27,78.9,122.67,82.02,126.67z"/>
			<path class="st11" d="M100.9,26.45c-3.24,6.43-5.7,12.75-6.21,19.61c-0.12,1.33-0.07,2.68,0.14,4c0.32,2.22,1.17,5.24,5.81,11.56
				c2.28,3.1,4.78,6.05,7.47,8.81c1.08-2,2.02-4.06,2.82-6.18c1.33-4.16,2.43-8.4,3.3-12.68c0.7-3.66-0.43-7.06-2.07-10.24
				C109.21,35.81,105.41,30.79,100.9,26.45z"/>
			<path class="st11" d="M114.84,99.95c2.77-0.31,5.47-1.06,8-2.22c5-2.44,8.83-6.67,11.87-12c1.63-2.87,3.14-5.81,5-9.25
				l-8.94,0.55l-5.25,0.39c-7.16,0.5-13.23,3.38-17.48,9.66c-2.86,4.22-5.37,8.68-8,13C104.95,100.81,109.94,100.77,114.84,99.95z"
				/>
			<path class="st11" d="M114.17,73.16c2.36-0.21,4.72-0.39,7.08-0.64c3.52-0.39,7.05-0.64,10.53-1.28c7.56-1.4,12-7,15.81-13.2
				c1.76-2.88,3.23-5.95,5-9.23c-5.98-0.41-11.99,0.03-17.84,1.31c-3.94,0.89-7.65,2.33-10.59,5.43c-3.42,3.44-6.18,7.48-8.13,11.93
				c-0.2,0.49-0.66,0.88-0.88,1.37c-0.55,1.19-1,2.41-1.53,3.62L114.17,73.16z"/>
			<path class="st11" d="M95.12,98.75c3.78-8.54,7.78-16.52,5.69-25.41c-0.67-2.89-2.84-6-3.53-7.2c-2.54-4.34-5.66-8.32-9.27-11.83
				c-3.62,6.94-6.24,13.82-6.28,21.36c0,5.6,2.94,9.9,5.89,14.07C89.79,92.76,92.4,95.5,95.12,98.75z"/>
			<path class="st11" d="M121.05,49.3c6.6-2.85,12.14-6.49,16-12.28c5.33-8,4.54-16.4,2.28-24.73c-0.09-0.34-1.23-0.69-1.67-0.49
				c-6.51,3-12.25,7.15-15.8,13.75c-2.77,5.12-3.08,10.64-2.38,16.12C119.79,44.13,120.46,46.51,121.05,49.3z"/>
		</g>
		<g id="mjpdp3-2">
			<path class="st11" d="M68.5,78.13c-9,0-17.71-0.28-25.67,4.77c-4.4,2.77-7.13,7.27-9.7,11.77c-1.36,2.37-2.55,4.85-4,7.64
				c5.98,0.42,11.98-0.02,17.83-1.31c4.14-0.74,7.94-2.75,10.89-5.75C62.41,90.34,65.63,84.67,68.5,78.13z"/>
			<path class="st11" d="M24.02,100.52c0.91-1.94,1.6-3.2,2.09-4.52c1.19-3.23,2.45-6.45,3.39-9.75c1.94-6.12,0.98-12.8-2.6-18.13
				c-2.83-4.46-6.18-8.55-10-12.2c-3.73,8-7.3,15.76-5.77,24.3c0.58,3.23,2.41,6.31,4.22,9.06C17.9,93.08,20.9,96.5,24.02,100.52z"
				/>
			<path class="st11" d="M42.9,0.26c-3.19,6.41-5.65,12.75-6.17,19.61c-0.4,5.4,1.59,9.8,4.79,13.71c0.45,0.57,0.84,1.17,1.17,1.81
				c1.83,3.44,4.54,6.06,7.46,8.81c1.08-2,2.02-4.06,2.82-6.18c1.33-4.16,2.44-8.4,3.31-12.68c0.69-3.66-0.43-7.06-2.07-10.24
				C51.24,9.59,47.43,4.58,42.9,0.26z"/>
			<path class="st11" d="M42.55,74.87c4.77-0.37,9.53-0.66,14.29-1.11c9.17-0.88,15.41-6.31,19.91-14.27
				c1.63-2.82,3.15-5.82,4.98-9.25l-8.94,0.55c-1.75,0.11-3.5,0.27-5.25,0.39c-7.17,0.5-13.23,3.38-17.48,9.66
				c-2.86,4.22-5.37,8.68-8,13L42.55,74.87z"/>
			<path class="st11" d="M56.17,46.97c2.36-0.21,4.73-0.39,7.09-0.64c3.51-0.39,7-0.64,10.53-1.28c7.55-1.4,12-7,15.81-13.2
				c1.76-2.89,3.22-5.95,5-9.24c-5.98-0.4-11.99,0.04-17.84,1.32c-3.95,0.89-7.66,2.33-10.59,5.43c-3.42,3.44-6.18,7.49-8.14,11.93
				c-0.2,0.49-0.65,0.88-0.87,1.37c-0.55,1.19-1,2.41-1.54,3.62L56.17,46.97z"/>
			<path class="st11" d="M37.12,72.56c3.78-8.54,7.78-16.52,5.69-25.41c-0.59-2.57-2.22-4.87-3.52-7.2
				c-1.04-1.91-2.23-3.73-3.56-5.45c-1.72-2.15-3.67-4.11-5.72-6.38c-3.62,6.93-6.23,13.82-6.28,21.31c0,5.6,2.94,9.9,5.89,14.07
				C31.8,66.57,34.41,69.31,37.12,72.56z"/>
			<path class="st11" d="M63.05,23.11c6.6-2.85,12.14-6.49,16-12.28c5.32-8,4.54-16.4,2.27-24.73c-0.09-0.34-1.23-0.69-1.66-0.49
				C73.14-11.33,67.4-7.24,63.9-0.65C61.09,4.5,60.79,10,61.49,15.5C61.8,17.94,62.47,20.32,63.05,23.11z"/>
		</g>
	</g>
</g>
<path class="st12" d="M72.16,150.08c0.39-0.76,1.15-1.26,2-1.31c1.2-0.04,2.21,0.91,2.25,2.11c0.01,0.44-0.11,0.88-0.35,1.25
	c-0.91,1.52-2.04,2.9-3.35,4.09c-3.65,3.3-8.48,4.99-13.39,4.69c-0.62,0.02-1.22-0.15-1.73-0.5c-0.75-0.55-1.05-1.53-0.73-2.41
	c0.29-1.01,1.3-1.64,2.34-1.47c2.67,0.21,5.34-0.35,7.7-1.62C69.04,153.77,70.85,152.11,72.16,150.08z"/>
</svg>
