<svg id="Laag_1" data-name="Laag 1" xmlns="http://www.w3.org/2000/svg" xmlns:xlink="http://www.w3.org/1999/xlink" viewBox="0 0 571.5 202.06"><defs><style>.cls-1{fill:none;}.cls-2{fill:#b2b2b2;}.cls-3{clip-path:url(#clip-path);}.cls-4{fill:#3e78bc;}.cls-5{clip-path:url(#clip-path-2);}.cls-6{fill:#95c11f;}.cls-7{fill:#a83123;}.cls-8{clip-path:url(#clip-path-3);}.cls-9{fill:#235833;}.cls-10{fill:#87ba61;}.cls-11{fill:#086736;}.cls-12{clip-path:url(#clip-path-4);}.cls-13{fill:#fbbd53;}.cls-14{fill:#fff;}</style><clipPath id="clip-path" transform="translate(129.38 18.12)"><path class="cls-1" d="M80.44,179.11c-5,0-31.52-.5-52.95-21.93s-21.93-48-21.93-52.95H80.62l-.18,74.88V141.67"/></clipPath><clipPath id="clip-path-2" transform="translate(129.38 18.12)"><path class="cls-1" d="M92.2,178.87c5,0,31.49-.5,52.9-21.91S167,109,167,104.06H92q.09,37.41.17,74.81v-37.4"/></clipPath><clipPath id="clip-path-3" transform="translate(129.38 18.12)"><path class="cls-1" d="M167.27,93.28c0-5-.5-31.72-22.07-53.28S96.94,17.93,91.92,17.93V93.46l75.35-.18H129.6"/></clipPath><clipPath id="clip-path-4" transform="translate(129.38 18.12)"><path class="cls-1" d="M81.06,17.8c-5,0-31.45.5-52.84,22.14S6.33,88.37,6.33,93.41H81.24L81.06,17.8V55.6"/></clipPath></defs><path class="cls-2" d="M229.05,92.86c-7.07,0-11.54-4.48-11.54-10.36V57.3c0-10.72-4.71-15.42-12.84-15.42-6.82,0-11.53,5.18-11.53,14.24V92.86h-4.71c-6.72,0-11.07-4.48-11.07-10.36V55.06c0-13.42,8.83-27.2,28.61-27.2,14.95,0,27.32,10,27.32,28v37Z" transform="translate(129.38 18.12)"/><path class="cls-2" d="M270.41,92.86c-15.66,0-28-10.37-28-28.85V27.86h2.94c9.07,0,13.07,3.89,13.07,11.31V62.48c0,11.66,5.65,16.37,12.84,16.37,6.47,0,11.06-4.48,11.06-15.31V27.86h2.83c9.18,0,13.07,3.89,13.07,11.31V63C298.2,82.73,288.9,92.86,270.41,92.86Z" transform="translate(129.38 18.12)"/><path class="cls-2" d="M310.63,18.63c2.12-2.47,4.95-4.36,7.42-4.36h3.65V28.64h22v6.47c0,3.3-3,7.54-9.42,7.54H321.7V67.49c0,8.24,3.65,11.42,10,11.42,5.06,0,9-.7,11.42-2.23h.59v5.65c0,6.47-4.71,10.59-13.89,10.59-16,0-23.79-8.71-23.79-23.54V31.23C306,25,307.22,22.63,310.63,18.63Z" transform="translate(129.38 18.12)"/><path class="cls-2" d="M388.29,44.7a22.87,22.87,0,0,0-9.18-1.88c-7.07,0-11,3.88-11,13.54v36.5H363.8c-7.07,0-11.54-3.53-11.54-10.13V53.53c0-12.71,6.71-24.84,23.43-24.84,9.77,0,13.19,5.53,13.19,10.36V44.7Z" transform="translate(129.38 18.12)"/><path class="cls-2" d="M405.86,24.16a9.3,9.3,0,0,1-9.18-9.3,9.19,9.19,0,0,1,9.18-9.18,9.29,9.29,0,0,1,9.3,9.18A9.39,9.39,0,0,1,405.86,24.16Zm11.19,68.65c-12.25,0-19-7-19-19.78v-43h4.48c7.06,0,11.3,3.77,11.3,11.77V71.5c0,6.35,2.71,8.36,9.65,8.36h3v3.41C426.47,90.1,423.76,92.81,417.05,92.81Z" transform="translate(129.38 18.12)"/><path class="cls-2" d="M274.7,143.09C270,156.52,264.1,168.17,260,174.3h-2.59c-4.94,0-8.71-4.6-10.83-8.48-3.89-7.07-8.71-18.84-10.48-28.49-2,9.65-9.42,29.31-15.07,37h-2.12c-4.71,0-9.18-4.71-11.3-8.48-9.19-16.25-15.31-34.62-18.14-55.81h8.48a9.25,9.25,0,0,1,9.19,7.65c1.88,10.83,4.82,22.84,10.12,34.38,5.77-12.6,8.95-26.25,12-39.68h5.18c4.83,0,9.66,2,11.19,9,1.88,8.6,5.77,21.78,10.24,30.73,6-13.3,9.42-28,11.89-42.39h6.6c4.47,0,7.65,2,7.65,6.83C282,119,279.41,129.91,274.7,143.09Z" transform="translate(129.38 18.12)"/><path class="cls-2" d="M301.19,105.53a9.3,9.3,0,0,1-9.18-9.3,9.19,9.19,0,0,1,9.18-9.18,9.3,9.3,0,0,1,9.3,9.18A9.4,9.4,0,0,1,301.19,105.53Zm11.19,68.65c-12.25,0-19-7-19-19.78v-43h4.47c7.07,0,11.31,3.77,11.31,11.77v29.68c0,6.36,2.71,8.36,9.65,8.36h2.95v3.41C321.8,171.47,319.09,174.18,312.38,174.18Z" transform="translate(129.38 18.12)"/><path class="cls-2" d="M349.82,175c-11.66,0-20.37-6-20.37-12.48v-7.18H330c3.41,3.18,11.54,6,19.07,6,7.77,0,11.54-2.23,11.54-6.94,0-3.65-2.24-5.42-13.18-7-13.43-1.88-19.91-7.18-19.91-16.84,0-11.89,10.72-22,27-22,14.36,0,20.25,7.42,20.25,13.55v6h-.59c-3.3-3.3-10.6-5.89-18.13-5.89-9.65,0-12.72,3-12.72,7.07,0,3.18,1.89,4.47,12.72,6.24,13.19,2.12,20.25,7.89,20.25,18C376.31,167,366.89,175,349.82,175Z" transform="translate(129.38 18.12)"/><path class="cls-2" d="M412.34,148.63H402c1.17,8,8.47,13.07,17.78,13.07,6.59,0,14.36-1.3,19.42-6h.59v4.95c0,8.12-5.53,14.36-23,14.36a31.32,31.32,0,0,1-31.2-31.91c0-21.19,12.95-34.5,31.09-34.5,13.18,0,25.43,9.42,25.43,24.61C442.13,144.86,433.3,148.63,412.34,148.63Zm2.94-26.85c-7.65,0-12.95,6.24-13.3,13.54l-.12,2.12h7.06c15,0,18.37-1.65,18.37-6.12C427.29,125,422.58,121.78,415.28,121.78Z" transform="translate(129.38 18.12)"/><g class="cls-3"><path class="cls-4" d="M123.66,118.46a28.63,28.63,0,0,0-17,8.88,2,2,0,0,1-3.29-.49c-6.59-16.51-24.31-28.38-45.21-28.5-19.08-.12-35.63,9.58-43.59,23.75a1.62,1.62,0,0,0,1,2.32C29.44,129.14,38.27,138.51,36,147.1c-1.68,6.46-9.22,10.89-19.14,12.21a1.65,1.65,0,0,0-1.38,2.45c8.16,13.13,23.88,22.07,42,22.18,20.47.12,38.06-11.07,45.2-26.95a2,2,0,0,1,3.29-.36,28.42,28.42,0,0,0,17.29,9.58c2.58.42,5-1.31,5-3.64l.31-40.41C128.61,119.84,126.25,118.07,123.66,118.46ZM48.05,130.34c-3.94.17-7.29-2.52-7.49-6s2.84-6.47,6.78-6.64,7.3,2.51,7.49,6S52,130.16,48.05,130.34Z" transform="translate(129.38 18.12)"/></g><g class="cls-5"><path class="cls-6" d="M77.82,129.17a16.57,16.57,0,0,0,21.85-1.4,17.21,17.21,0,0,0,3.79-5.67,2.09,2.09,0,0,0-.59-2.55A16.5,16.5,0,0,0,76.74,125C75.8,127.11,76,127.78,77.82,129.17Z" transform="translate(129.38 18.12)"/><path class="cls-7" d="M100.59,163.49c4.49,4.4,10.38,7.51,16.7,9.91a40,40,0,0,0,13.22,3.07c5.92.13,11.2-1.43,15.31-5.94a24.17,24.17,0,0,0,2.49-3.21,19.47,19.47,0,0,1,5.78-5.76c4.87-3.18,8-7.46,8.86-13.35a25.46,25.46,0,0,0-.41-9.21c-1.77-7.71-4.46-15-9.15-21.51s-10.82-11.12-19.06-12c-8-.86-14.36,2-18.78,8.85-1.21,1.86-2.27,3.82-3.42,5.72-.69,1.16-.88,1.19-1.78.19a19.11,19.11,0,0,1-4.78-9.68,2.2,2.2,0,0,0-1.62-2,2,2,0,0,0-2.2.8,2.4,2.4,0,0,0-.3,2.1,23,23,0,0,0,5.94,11.72c.93,1,.93,1-.18,1.72-2.26,1.48-4.73,2.63-6.94,4.21-6.61,4.73-9,11.27-7.91,19.12C93.13,153.86,95.93,158.86,100.59,163.49ZM138,119a13.59,13.59,0,0,0-7.48-1.8,2,2,0,0,1-2.22-1.49,2.05,2.05,0,0,1,.77-2.31,2.73,2.73,0,0,1,1.69-.43,17.64,17.64,0,0,1,12.82,4.94,17.13,17.13,0,0,1,3.12,4.06,2.1,2.1,0,0,1-1.92,3.19,2.34,2.34,0,0,1-1.87-1.33A13.77,13.77,0,0,0,138,119Z" transform="translate(129.38 18.12)"/><path class="cls-6" d="M-127.74,56.92a16.57,16.57,0,0,0,21.85-1.4,17.26,17.26,0,0,0,3.79-5.68,2.08,2.08,0,0,0-.59-2.54,16.49,16.49,0,0,0-26.12,5.47C-129.76,54.85-129.59,55.52-127.74,56.92Z" transform="translate(129.38 18.12)"/></g><g class="cls-8"><g id="KV1Z9q.tif"><path class="cls-9" d="M105.88,26.36c-3.33-.66-6.59,1.1-8.15,1.94-4.57,2.46-9.06,9.4-6.82,15.23,1.74,4.55,6.84,6.27,9.73,6.49a12.84,12.84,0,0,0,5.86-1c.59-.24,1.23-.88,1.83-.34s0,1.34-.21,2c-5.18,14.94,5.61,29.26,21.24,28.11.94-.07,1.84-.18,2.34.73s-.15,1.58-.6,2.31c-3.26,5.35-2.95,11.59.78,15.92,3.88,4.52,9.85,5.64,16.09,3,5.05-2.12,8.61-7.83,8.45-13.66,0-1.43.38-2.2,2-2.49a6.15,6.15,0,0,0,5.19-5,5.33,5.33,0,0,0-3.25-6c-2.16-1-2.26-2.36-.32-4,5.5-4.73,6-12.19,1-16.79a3.6,3.6,0,0,1-1.13-4.08c2.34-8.06-2.48-14.91-10.79-15.41a6.13,6.13,0,0,1-5.46-3.45c-2.77-5.33-8.45-6.57-13.76-3.08-2.18,1.43-4.56,1-5.29-1.27-1.59-5-8.93-6.11-12.2-.63a3.38,3.38,0,0,1-2,1.47C108.6,27.16,107,26.58,105.88,26.36Z" transform="translate(129.38 18.12)"/><path class="cls-10" d="M85.81,94a14.69,14.69,0,0,0,5.38,5c1.94,1.18,2.91,1.76,4.09,1.73,3-.08,4.25-3.41,8.81-6.92A24.7,24.7,0,0,1,112,89.56a132,132,0,0,1,13.23-2.88,1.07,1.07,0,0,0,1.14-.9c.9-2.93.93-2.93-2-3.46a20.84,20.84,0,0,1-4.91-1.41,2.76,2.76,0,0,0-2.84.19c-3.63,2.1-7.33,4.07-11,6.12-.89.5-1.83,1.08-2.55.07-.82-1.16.27-1.85,1-2.51,2.92-2.48,5.86-4.92,8.87-7.44a27.26,27.26,0,0,1-6.61-7.58c-2.37,2.57-4.62,5-6.86,7.46-.66.73-1.33,1.42-2.3.76s-.53-1.53,0-2.35c2-3.3,4-6.62,6.09-9.89a3.15,3.15,0,0,0,.51-2.69,24.38,24.38,0,0,1-.65-9.14c.1-.91,0-1.3-1-1.26a15.61,15.61,0,0,1-4.92-.7c0,1.13,0,2.11-.06,3.09a45.58,45.58,0,0,1-3.57,15.71,38.19,38.19,0,0,1-6.92,11.34A9.67,9.67,0,0,0,84.08,86C83.06,89.43,85,92.64,85.81,94Z" transform="translate(129.38 18.12)"/><path class="cls-11" d="M85.89,56.72" transform="translate(129.38 18.12)"/></g></g><g class="cls-12"><g id="mjpdp3"><path class="cls-13" d="M123.59,100.65c-9,0-17.71-.28-25.66,4.77-4.4,2.79-7.14,7.27-9.7,11.73-1.37,2.37-2.56,4.85-4,7.64a62.64,62.64,0,0,0,17.83-1.31,20.3,20.3,0,0,0,10.88-5.75C117.5,112.86,120.72,107.16,123.59,100.65Z" transform="translate(129.38 18.12)"/><path class="cls-13" d="M79.12,123c.91-1.94,1.6-3.2,2.08-4.52,1.2-3.23,2.45-6.45,3.4-9.75A21.11,21.11,0,0,0,82,90.64,65.27,65.27,0,0,0,72,78.44c-3.74,8-7.31,15.76-5.78,24.3.58,3.24,2.41,6.31,4.22,9.06C73,115.6,76,119,79.12,123Z" transform="translate(129.38 18.12)"/><path class="cls-13" d="M98,22.78c-3.24,6.43-5.7,12.75-6.21,19.61a16.4,16.4,0,0,0,.14,4c.32,2.22,1.17,5.24,5.81,11.56a84,84,0,0,0,7.47,8.81,51.41,51.41,0,0,0,2.82-6.18,119.93,119.93,0,0,0,3.3-12.68c.7-3.66-.43-7.06-2.07-10.24A59.84,59.84,0,0,0,98,22.78Z" transform="translate(129.38 18.12)"/><path class="cls-13" d="M111.94,96.28a26,26,0,0,0,8-2.22c5-2.44,8.83-6.67,11.87-12,1.63-2.87,3.14-5.81,5-9.25l-8.94.55-5.25.39c-7.16.5-13.23,3.38-17.48,9.66-2.86,4.22-5.37,8.68-8,13A47.33,47.33,0,0,0,111.94,96.28Z" transform="translate(129.38 18.12)"/><path class="cls-13" d="M111.27,69.49c2.36-.21,4.72-.39,7.08-.64,3.52-.39,7.05-.64,10.53-1.28,7.56-1.4,12-7,15.81-13.2,1.76-2.88,3.23-5.95,5-9.23a63.22,63.22,0,0,0-17.84,1.31c-3.94.89-7.65,2.33-10.59,5.43a39.23,39.23,0,0,0-8.13,11.93c-.2.49-.66.88-.88,1.37-.55,1.19-1,2.41-1.53,3.62Z" transform="translate(129.38 18.12)"/><path class="cls-13" d="M92.22,95.08C96,86.54,100,78.56,97.91,69.67c-.67-2.89-2.84-6-3.53-7.2a55.92,55.92,0,0,0-9.27-11.83C81.49,57.58,78.87,64.46,78.83,72c0,5.6,2.94,9.9,5.89,14.07C86.89,89.09,89.5,91.83,92.22,95.08Z" transform="translate(129.38 18.12)"/><path class="cls-13" d="M118.15,45.63c6.6-2.85,12.14-6.49,16-12.28,5.33-8,4.54-16.4,2.28-24.73-.09-.34-1.23-.69-1.67-.49-6.51,3-12.25,7.15-15.8,13.75C116.19,27,115.88,32.52,116.58,38,116.89,40.46,117.56,42.84,118.15,45.63Z" transform="translate(129.38 18.12)"/></g><g id="mjpdp3-2" data-name="mjpdp3"><path class="cls-13" d="M65.6,74.46c-9,0-17.71-.28-25.67,4.77C35.53,82,32.8,86.5,30.23,91c-1.36,2.37-2.55,4.85-4,7.64a62.62,62.62,0,0,0,17.83-1.31,20.32,20.32,0,0,0,10.89-5.75C59.51,86.67,62.73,81,65.6,74.46Z" transform="translate(129.38 18.12)"/><path class="cls-13" d="M21.12,96.85c.91-1.94,1.6-3.2,2.09-4.52,1.19-3.23,2.45-6.45,3.39-9.75A21.11,21.11,0,0,0,24,64.45,65,65,0,0,0,14,52.25c-3.73,8-7.3,15.76-5.77,24.3.58,3.23,2.41,6.31,4.22,9.06C15,89.41,18,92.83,21.12,96.85Z" transform="translate(129.38 18.12)"/><path class="cls-13" d="M40-3.41C36.81,3,34.35,9.34,33.83,16.2c-.4,5.4,1.59,9.8,4.79,13.71a11.43,11.43,0,0,1,1.17,1.81c1.83,3.44,4.54,6.06,7.46,8.81a51.41,51.41,0,0,0,2.82-6.18,120,120,0,0,0,3.31-12.68c.69-3.66-.43-7.06-2.07-10.24A59.64,59.64,0,0,0,40-3.41Z" transform="translate(129.38 18.12)"/><path class="cls-13" d="M39.65,71.2c4.77-.37,9.53-.66,14.29-1.11,9.17-.88,15.41-6.31,19.91-14.27C75.48,53,77,50,78.83,46.57l-8.94.55c-1.75.11-3.5.27-5.25.39-7.17.5-13.23,3.38-17.48,9.66-2.86,4.22-5.37,8.68-8,13Z" transform="translate(129.38 18.12)"/><path class="cls-13" d="M53.27,43.3c2.36-.21,4.73-.39,7.09-.64,3.51-.39,7-.64,10.53-1.28,7.55-1.4,12-7,15.81-13.2,1.76-2.89,3.22-5.95,5-9.24a63.56,63.56,0,0,0-17.84,1.32c-3.95.89-7.66,2.33-10.59,5.43a39.44,39.44,0,0,0-8.14,11.93c-.2.49-.65.88-.87,1.37-.55,1.19-1,2.41-1.54,3.62Z" transform="translate(129.38 18.12)"/><path class="cls-13" d="M34.22,68.89C38,60.35,42,52.37,39.91,43.48c-.59-2.57-2.22-4.87-3.52-7.2a39.89,39.89,0,0,0-3.56-5.45c-1.72-2.15-3.67-4.11-5.72-6.38-3.62,6.93-6.23,13.82-6.28,21.31,0,5.6,2.94,9.9,5.89,14.07C28.9,62.9,31.51,65.64,34.22,68.89Z" transform="translate(129.38 18.12)"/><path class="cls-13" d="M60.15,19.44c6.6-2.85,12.14-6.49,16-12.28,5.32-8,4.54-16.4,2.27-24.73-.09-.34-1.23-.69-1.66-.49C70.24-15,64.5-10.91,61-4.32,58.19.83,57.89,6.33,58.59,11.83,58.9,14.27,59.57,16.65,60.15,19.44Z" transform="translate(129.38 18.12)"/></g></g><path class="cls-14" d="M69.26,146.41a2.41,2.41,0,0,1,2-1.31,2.18,2.18,0,0,1,1.9,3.36,18,18,0,0,1-3.35,4.09,18.27,18.27,0,0,1-13.39,4.69,2.87,2.87,0,0,1-1.73-.5,2.1,2.1,0,0,1-.73-2.41,2.08,2.08,0,0,1,2.34-1.47A14,14,0,0,0,64,151.24,14.19,14.19,0,0,0,69.26,146.41Z" transform="translate(129.38 18.12)"/></svg>